<?xml version="1.0" standalone="no"?>
<!DOCTYPE svg PUBLIC "-//W3C//DTD SVG 20010904//EN"
 "http://www.w3.org/TR/2001/REC-SVG-20010904/DTD/svg10.dtd">
<svg version="1.0" xmlns="http://www.w3.org/2000/svg"
 width="800.000000pt" height="800.000000pt" viewBox="0 0 800.000000 800.000000"
 preserveAspectRatio="xMidYMid meet">
<metadata>
Created by potrace 1.11, written by Peter Selinger 2001-2013
</metadata>
<g transform="translate(0.000000,800.000000) scale(0.100000,-0.100000)"
fill="#000000" stroke="none">
<path d="M3618 7990 c-37 -5 -87 -11 -110 -14 -24 -3 -65 -8 -93 -11 -27 -4
-57 -8 -65 -10 -8 -2 -31 -7 -50 -10 -412 -65 -897 -241 -1295 -470 -846 -486
-1498 -1282 -1803 -2200 -77 -232 -151 -541 -168 -705 -3 -36 -8 -67 -9 -70
-27 -46 -27 -856 -1 -995 2 -11 7 -47 11 -80 38 -339 196 -847 370 -1196 213
-425 437 -734 779 -1074 415 -413 874 -707 1426 -913 203 -76 516 -161 683
-187 18 -2 75 -11 127 -20 163 -26 245 -30 580 -30 285 0 424 5 495 19 11 2
49 7 85 11 36 4 67 8 70 10 3 2 26 6 50 10 207 30 513 117 768 217 159 62 429
192 540 260 34 21 65 38 68 38 2 0 10 4 17 10 7 5 55 38 107 72 112 73 340
244 425 319 102 90 357 349 436 444 460 548 766 1202 885 1885 2 14 6 34 9 45
2 11 7 49 11 85 3 36 8 67 9 70 27 46 27 856 1 995 -2 11 -7 47 -10 80 -16
140 -78 412 -143 625 -76 250 -235 609 -362 819 -28 46 -51 85 -51 87 0 7
-147 221 -206 300 -167 221 -396 466 -584 624 -36 30 -74 63 -85 73 -62 56
-358 267 -440 313 -11 6 -60 35 -110 64 -358 209 -783 367 -1229 456 -18 4
-91 16 -176 29 -28 4 -99 14 -151 21 -62 9 -743 12 -811 4z"/>
</g>
</svg>
